<?xml version="1.0" encoding="UTF-8" standalone="no"?>
<!-- Created with Inkscape (http://www.inkscape.org/) -->

<svg
   xmlns:dc="http://purl.org/dc/elements/1.1/"
   xmlns:cc="http://creativecommons.org/ns#"
   xmlns:rdf="http://www.w3.org/1999/02/22-rdf-syntax-ns#"
   xmlns:svg="http://www.w3.org/2000/svg"
   xmlns="http://www.w3.org/2000/svg"
   xmlns:sodipodi="http://sodipodi.sourceforge.net/DTD/sodipodi-0.dtd"
   xmlns:inkscape="http://www.inkscape.org/namespaces/inkscape"
   id="svg4179"
   version="1.1"
   inkscape:version="0.91 r13725"
   xml:space="preserve"
   width="262.21124"
   height="191.33875"
   viewBox="0 0 262.21124 191.33875"
   sodipodi:docname="openSUSE-Sticker-White-no-border.svg"><metadata
     id="metadata4185"><rdf:RDF><cc:Work
         rdf:about=""><dc:format>image/svg+xml</dc:format><dc:type
           rdf:resource="http://purl.org/dc/dcmitype/StillImage" /><dc:title></dc:title></cc:Work></rdf:RDF></metadata><defs
     id="defs4183"><clipPath
       clipPathUnits="userSpaceOnUse"
       id="clipPath4193"><path
         d="m 0,153.071 209.769,0 L 209.769,0 0,0 0,153.071 Z"
         id="path4195"
         inkscape:connector-curvature="0" /></clipPath><clipPath
       clipPathUnits="userSpaceOnUse"
       id="clipPath4193-3"><path
         d="m 0,153.071 209.769,0 L 209.769,0 0,0 0,153.071 Z"
         id="path4195-6"
         inkscape:connector-curvature="0" /></clipPath></defs><sodipodi:namedview
     pagecolor="#ffffff"
     bordercolor="#666666"
     borderopacity="1"
     objecttolerance="10"
     gridtolerance="10"
     guidetolerance="10"
     inkscape:pageopacity="0"
     inkscape:pageshadow="2"
     inkscape:window-width="1920"
     inkscape:window-height="1015"
     id="namedview4181"
     showgrid="false"
     inkscape:zoom="1.2334146"
     inkscape:cx="-54.963201"
     inkscape:cy="95.669374"
     inkscape:window-x="0"
     inkscape:window-y="0"
     inkscape:window-maximized="1"
     inkscape:current-layer="g4191" /><g
     id="g4187"
     inkscape:groupmode="layer"
     inkscape:label="file2"
     transform="matrix(1.25,0,0,-1.25,0,191.33875)"><g
       id="g4189"><g
         id="g4191"
         clip-path="url(#clipPath4193)"><g
           id="g4197"
           transform="translate(37.6136,14.5981)"
           style="stroke:none;stroke-opacity:1;stroke-width:0.4;stroke-miterlimit:4;stroke-dasharray:none"><path
             d="M 0,0 C -4.108,0 -7.523,3.03 -8.126,6.973 -8.297,6.964 -8.469,6.96 -8.642,6.96 l -5.159,0 c -5.95,0 -10.791,4.855 -10.791,10.823 l 0,7.977 c 0,5.932 4.898,10.759 10.919,10.759 l 4.903,0 c 0.76,0 1.502,-0.078 2.219,-0.224 -1.991,1.737 -3.769,3.705 -5.275,5.869 -2.442,3.508 -4.25,7.442 -5.23,11.378 -2.09,8.271 -0.408,17.241 1.669,22.402 4.879,12.082 14.06,22.389 27.291,30.641 0,0 0.754,0.47 0.754,0.47 9.458,5.816 19.741,10.355 30.613,12.734 10.232,2.239 20.79,2.279 31.202,1.708 5.048,-0.277 10.019,-0.768 15,-1.653 1.129,-0.201 12.802,-3.28 13.038,-2.911 0.934,1.463 2.385,2.546 4.086,3.015 l 0.175,0.049 c 0.617,0.17 1.251,0.255 1.887,0.255 0.339,0 0.678,-0.023 1.015,-0.072 6.19,-0.895 12.355,-2.122 18.414,-3.668 5.453,-1.392 11.072,-2.772 15.956,-5.673 5.826,-3.461 8.405,-8.701 10.58,-14.908 2.576,-7.35 4.604,-19.412 -2.209,-25.318 -2.08,-1.858 -4.603,-3.024 -8.476,-4.707 -5.826,-2.549 -14.721,-4.137 -23.197,-4.137 0,0 -0.498,0.002 -0.536,0.003 -3.096,0.069 -5.978,0.406 -8.294,0.676 -1.947,0.219 -3.796,0.428 -5.15,0.428 -0.104,0 -0.288,-0.003 -0.288,-0.003 l 6.434,-16.292 5.953,0 c 2.035,0 8.529,-0.081 10.388,-0.008 0.129,0.007 0.26,0.011 0.391,0.011 l 16.109,0 c 5.228,0 9.323,-4.053 9.323,-9.227 l 0,-0.559 c 0,-2.913 -1.3,-5.47 -3.37,-7.148 0.249,-0.841 0.382,-1.736 0.382,-2.668 0,0 -0.001,-0.659 -0.001,-0.709 0.116,0.004 0.233,0.007 0.352,0.007 5.054,0 9.446,-4.13 9.159,-9.188 C 160.931,5.402 148.049,6.982 146.45,6.982 l -16.859,0 c -2.127,0 -9.913,-0.001 -12.498,-0.001 l -13.779,0 c -2.274,0 -10.926,-0.149 -13.932,-0.149 l -7.786,0 c -3.578,0 -14.332,0.149 -17.609,0.149 l -13.773,0 c -1.445,0 -6.39,-0.02 -7.725,-0.02 l -0.444,0 -9.905,0 -7.885,0 -5.323,0 C 16.923,6.961 10.378,7.118 8.567,6.937 7.949,3.012 4.541,0 0.441,0 L 0,0 Z"
             style="fill:#5ac047;fill-opacity:1;fill-rule:nonzero;stroke:none;stroke-opacity:1;stroke-width:0.4;stroke-miterlimit:4;stroke-dasharray:none"
             id="path4199"
             inkscape:connector-curvature="0" /></g><g
           id="g4201"
           transform="translate(189.6565,31.7659)"><path
             d="M 0,0 0.271,0 C 0.579,0 0.84,0.111 0.84,0.402 0.84,0.607 0.691,0.813 0.271,0.813 0.149,0.813 0.065,0.803 0,0.793 L 0,0 Z m 0,-1.298 -0.373,0 0,2.343 c 0.196,0.028 0.382,0.056 0.662,0.056 0.356,0 0.589,-0.074 0.728,-0.177 0.141,-0.102 0.216,-0.26 0.216,-0.486 0,-0.307 -0.205,-0.494 -0.457,-0.569 l 0,-0.02 C 0.981,-0.188 1.121,-0.374 1.168,-0.72 1.225,-1.085 1.279,-1.225 1.317,-1.299 l -0.392,0 C 0.868,-1.225 0.813,-1.01 0.766,-0.701 0.71,-0.404 0.561,-0.29 0.262,-0.29 l -0.261,0 0,-1.008 -0.001,0 z m 0.392,2.997 c -0.924,0 -1.68,-0.794 -1.68,-1.774 0,-1 0.756,-1.783 1.69,-1.783 0.933,-0.011 1.68,0.783 1.68,1.773 0,0.99 -0.747,1.784 -1.68,1.784 l -0.01,0 z m 0.01,0.326 c 1.148,0 2.062,-0.933 2.062,-2.101 0,-1.185 -0.915,-2.109 -2.072,-2.109 -1.148,0 -2.081,0.924 -2.081,2.109 0,1.167 0.933,2.101 2.081,2.101 l 0.01,0 z m -113.565,10.331 0.473,0 c 2.601,0 4.276,-1.538 4.276,-3.919 l 0,-10.422 c 0,-0.624 -0.511,-1.135 -1.14,-1.135 l -0.443,0 c -0.635,0 -1.134,0.506 -1.134,1.135 l 0,10.04 c 0,0.941 -0.769,1.714 -1.712,1.714 l -3.771,0 c -0.94,0 -1.709,-0.773 -1.709,-1.714 l 0,-10.04 c 0,-0.624 -0.513,-1.135 -1.142,-1.135 l -0.438,0 c -0.64,0 -1.137,0.506 -1.137,1.135 l 0,13.271 c 0,0.565 0.387,0.978 0.916,0.978 l 0.439,0 c 0.411,0 0.715,-0.182 0.895,-0.543 l 0.312,-0.569 c 0.133,-0.232 0.203,-0.254 0.376,-0.254 0.392,0 0.872,0.231 1.434,0.495 0.903,0.431 2.022,0.963 3.505,0.963 z m -20.869,-4.113 c 0,0.855 0.672,1.526 1.528,1.526 l 4.144,0 c 0.855,0 1.521,-0.671 1.521,-1.526 l 0,-2.472 -7.194,0 c 10e-4,0.322 10e-4,2.472 10e-4,2.472 z m 1.115,4.021 c -2.113,0 -3.828,-1.645 -3.828,-3.672 l 0,-7.917 c 0,-2.053 1.667,-3.795 3.634,-3.795 l 5.324,0 c 0.658,0 1.134,0.457 1.134,1.076 l 0,0.349 c 0,0.623 -0.476,1.07 -1.134,1.07 l -4.374,0 c -1.225,0 -1.872,0.602 -1.872,1.748 l 0,2.316 7.89,0 c 1.269,0 2.019,0.774 2.019,2.086 l 0,3.069 c 0,2.026 -1.717,3.671 -3.822,3.671 l -4.971,0 0,-0.001 z m -17.544,-11.176 0,6.967 c 0,0.963 0.752,1.714 1.714,1.714 l 3.768,0 c 0.963,0 1.714,-0.752 1.714,-1.714 l 0,-6.967 c 0,-0.946 -0.771,-1.714 -1.714,-1.714 l -3.768,0 c -0.944,0 -1.714,0.768 -1.714,1.714 z m 5.162,11.268 c -1.488,0 -2.61,-0.532 -3.51,-0.967 -0.549,-0.263 -1.024,-0.491 -1.393,-0.491 -0.166,0 -0.309,0.076 -0.384,0.199 l -0.343,0.656 c -0.086,0.173 -0.43,0.511 -0.856,0.511 l -0.51,0 c -0.49,0 -0.882,-0.441 -0.882,-0.978 l 0,-20.233 c 0,-0.634 0.501,-1.134 1.134,-1.134 l 0.441,0 c 0.629,0 1.14,0.505 1.14,1.134 l 0,6.714 c 0,0.199 0.129,0.413 0.26,0.413 0.369,0 0.844,-0.215 1.393,-0.467 0.9,-0.414 2.022,-0.924 3.51,-0.924 l 0.476,0 c 2.634,0 4.272,1.506 4.272,3.924 l 0,7.723 c 0,2.381 -1.673,3.919 -4.272,3.919 l -0.476,0 0,10e-4 z m -21.533,-11.424 0,7.284 c 0,0.854 0.701,1.553 1.559,1.553 l 4.02,0 c 0.839,0 1.554,-0.715 1.554,-1.553 l 0,-7.284 c 0,-0.859 -0.696,-1.558 -1.554,-1.558 l -4.05,0 c -0.86,0 -1.529,0.683 -1.529,1.558 m 1.116,11.332 c -2.113,0 -3.832,-1.645 -3.832,-3.672 l 0,-7.976 c 0,-2.059 1.664,-3.737 3.704,-3.737 l 5.16,0 c 2.04,0 3.704,1.678 3.704,3.737 l 0,7.976 c 0,2.026 -1.721,3.672 -3.832,3.672 l -4.904,0 z m 143.313,10.065 16.109,0 c 1.294,0 2.236,-0.903 2.236,-2.14 l 0,-0.559 c 0,-1.242 -0.942,-2.134 -2.236,-2.134 l -13.106,0 0,-5.547 10.118,0 c 1.295,0 2.236,-0.898 2.236,-2.135 l 0,-0.559 c 0,-1.231 -0.941,-2.14 -2.236,-2.14 l -10.118,0 0,-5.386 13.808,0 c 1.298,0 2.236,-0.903 2.236,-2.139 l 0,-0.56 c 0,-1.231 -0.938,-2.129 -2.236,-2.129 l -16.86,0 c -1.214,0 -2.131,0.915 -2.131,2.129 l 0,21.157 c 0,1.219 0.938,2.14 2.18,2.14 l 0,0.002 z m -22.02,-0.002 11.241,0 c 1.313,0 2.29,-0.921 2.29,-2.141 l 0,-0.559 c 0,-1.215 -0.958,-2.134 -2.235,-2.134 l -10.438,0 c -1.377,0 -2.164,-0.683 -2.164,-1.86 l 0,-1.871 c 0,-0.752 0.641,-1.816 2.064,-1.816 l 9.425,0 c 2.599,0 5.224,-1.629 5.224,-5.273 l 0,-3.387 c 0,-3.881 -2.333,-6.386 -5.934,-6.386 l -13.779,0 c -1.292,0 -2.236,0.898 -2.236,2.129 l 0,0.56 c 0,1.236 0.944,2.139 2.236,2.139 l 13.07,0 c 1.419,0 1.462,1.946 1.462,2.161 l 0,2.026 c 0,0.666 -0.254,1.456 -1.462,1.456 l -9.576,0 c -2.73,0 -5.678,2.232 -5.678,5.833 l 0,3.14 c 0,2.445 2.308,5.983 6.49,5.983 z m -13.94,0 0.709,0 c 1.253,0 2.236,-0.99 2.236,-2.242 l 0,-16.647 c 0,-3.876 -3.048,-6.687 -7.243,-6.687 l -7.786,0 c -4.201,0 -7.251,2.812 -7.251,6.687 l 0,16.647 c 0,1.252 0.987,2.242 2.242,2.242 l 0.704,0 c 1.236,0 2.241,-1.005 2.241,-2.242 l 0,-16.04 c 0,-1.285 1.043,-2.317 2.316,-2.317 l 7.281,0 c 1.269,0 2.318,1.032 2.318,2.317 l 0,16.04 c 0,1.237 0.996,2.242 2.233,2.242 z m -39.166,0 11.246,0 c 1.307,0 2.285,-0.921 2.285,-2.141 l 0,-0.559 c 0,-1.215 -0.962,-2.134 -2.242,-2.134 l -10.432,0 c -1.377,0 -2.164,-0.683 -2.164,-1.86 l 0,-1.871 c 0,-0.752 0.643,-1.816 2.062,-1.816 l 9.425,0 c 2.599,0 5.217,-1.629 5.217,-5.273 l 0,-3.387 c 0,-3.881 -2.323,-6.386 -5.923,-6.386 l -13.774,0 c -1.298,0 -2.236,0.898 -2.236,2.129 l 0,0.56 c 0,1.236 0.938,2.139 2.236,2.139 l 13.064,0 c 1.416,0 1.459,1.946 1.459,2.161 l 0,2.026 c 0,0.666 -0.253,1.456 -1.459,1.456 l -9.579,0 c -2.728,0 -5.671,2.232 -5.671,5.833 l 0,3.14 c 0,2.445 2.302,5.983 6.486,5.983 z m 69.184,55.062 c 0.094,2.543 1.158,4.902 3.018,6.633 1.86,1.737 4.286,2.634 6.831,2.553 5.246,-0.187 9.369,-4.617 9.189,-9.857 -0.099,-2.543 -1.163,-4.903 -3.018,-6.628 -1.86,-1.747 -4.281,-2.644 -6.837,-2.559 -5.241,0.194 -9.359,4.612 -9.183,9.858 z m 25.451,-9.374 c 0.432,0.286 0.75,0.522 0.884,0.575 l 0.144,0.225 c -0.366,2.301 -3.794,13.455 -6.388,16.137 -0.715,0.73 -1.287,1.451 -2.445,2.129 -9.383,5.467 -31.642,8.766 -32.684,8.917 l -0.178,-0.049 -0.066,-0.161 c 0,0 -0.086,-4.612 -0.099,-5.128 -2.273,0.764 -18.799,6.102 -34.291,6.639 -13.137,0.462 -32.27,2.161 -57.622,-13.428 l -0.749,-0.466 c -11.928,-7.441 -20.163,-16.616 -24.468,-27.275 -1.35,-3.354 -3.166,-10.922 -1.366,-18.044 0.775,-3.113 2.22,-6.241 4.169,-9.041 4.405,-6.327 11.796,-10.525 19.754,-11.234 11.237,-1.005 19.745,4.041 22.771,13.492 2.081,6.52 0,16.087 -7.976,20.968 -6.489,3.973 -13.465,3.069 -17.512,0.392 -3.511,-2.328 -5.499,-5.945 -5.465,-9.918 0.082,-7.047 6.152,-10.793 10.517,-10.804 1.268,0 2.542,0.221 3.978,0.688 0.511,0.156 0.991,0.349 1.521,0.677 l 0.166,0.097 0.105,0.07 -0.035,-0.021 c 0.995,0.678 1.593,1.78 1.593,2.962 0,0.323 -0.045,0.65 -0.137,0.979 -0.516,1.785 -2.279,2.864 -4.106,2.531 l -0.247,-0.058 -0.334,-0.102 -0.484,-0.167 c -1.005,-0.247 -1.758,-0.269 -1.919,-0.274 -0.511,0.033 -3.023,0.785 -3.023,3.537 l 0,0.038 c 0,1.01 0.405,1.719 0.628,2.107 0.782,1.225 2.922,2.428 5.814,2.177 3.794,-0.328 6.53,-2.274 8.342,-5.945 1.682,-3.413 1.242,-7.611 -1.134,-10.687 -2.36,-3.047 -6.561,-4.342 -12.148,-3.741 -5.634,0.624 -10.396,3.866 -13.064,8.912 -2.61,4.934 -2.752,10.783 -0.368,15.276 5.703,10.767 16.475,10.654 22.381,9.633 8.74,-1.516 18.684,-9.578 22.211,-18.888 0.569,-1.484 0.86,-2.661 1.113,-3.736 l 0.381,-1.608 9.875,-4.821 0.129,-0.097 0.239,0.022 0.044,0.284 c -0.062,0.221 -0.205,0.425 -0.433,3.188 -0.188,2.452 -0.569,9.165 2.81,12.492 1.313,1.301 3.312,2.461 4.891,2.833 6.473,1.581 14.062,0.49 21.237,-7.816 3.715,-4.29 5.526,-6.246 6.435,-7.122 l 0.316,-0.285 0.374,-0.279 c 0.298,-0.163 12.339,-5.71 12.339,-5.71 l 0.248,0.06 0.004,0.257 c -0.08,0.091 -7.632,9.852 -6.288,17.889 1.059,6.401 6.153,5.822 13.201,5.026 2.3,-0.269 4.919,-0.57 7.63,-0.63 7.571,-0.048 15.726,1.35 20.752,3.549 3.251,1.413 5.326,2.354 6.626,3.536 0.468,0.387 0.71,1.016 0.963,1.693 l 0.177,0.447 c 0.21,0.549 0.52,1.705 0.655,2.338 0.055,0.279 0.087,0.574 -0.112,0.731 l -0.696,-0.129 c -2.207,-1.329 -7.724,-3.844 -12.882,-3.952 -6.404,-0.129 -19.296,6.441 -20.64,7.139 l -0.13,0.15 c -0.316,0.774 -2.252,5.348 -2.666,6.316 9.284,-6.117 16.983,-9.498 22.877,-10.019 6.562,-0.585 11.677,2.996 13.861,4.527 z m -14.596,8.492 c -1.629,0 -2.945,0.882 -2.945,1.962 0,1.091 1.316,1.968 2.945,1.968 1.629,0 2.949,-0.877 2.949,-1.968 -10e-4,-1.08 -1.321,-1.962 -2.949,-1.962 m -1.086,7.263 c -1.78,0.065 -3.468,-0.564 -4.757,-1.774 -1.29,-1.209 -2.051,-2.848 -2.105,-4.622 -0.123,-3.667 2.747,-6.751 6.405,-6.886 1.779,-0.054 3.475,0.575 4.773,1.785 1.295,1.215 2.04,2.854 2.096,4.622 0.124,3.665 -2.746,6.745 -6.412,6.876 l 0,-0.001 z"
             style="fill:#ffffff;fill-opacity:1;fill-rule:nonzero;stroke:none"
             id="path4203"
             inkscape:connector-curvature="0" /></g></g></g></g></svg>